<?xml version="1.0" encoding="UTF-8"?>
<!-- Generator: visioncortex VTracer 0.6.12 -->
<svg version="1.1" xmlns="http://www.w3.org/2000/svg" width="468" height="218">
<path d="M0 0 C4.335 3.355 6.883 7.639 8 13 C9.277 25.766 2.884 37.172 -3 48 C-3.593 49.101 -4.186 50.202 -4.797 51.336 C-8.601 58.124 -13.004 64.052 -18 70 C-18.7 70.873 -19.4 71.745 -20.121 72.645 C-24.59 78.213 -29.245 83.548 -34.104 88.774 C-36.673 91.538 -39.159 94.342 -41.562 97.25 C-42.367 98.157 -43.171 99.065 -44 100 C-44.66 100 -45.32 100 -46 100 C-45.391 112.982 -45.391 112.982 -42 118 C-38.424 119.788 -34.781 118.933 -31 118 C-22.904 114.2 -16.309 107.212 -10 101 C-9.646 100.669 -9.646 100.669 -7.855 98.992 C-2.139 92.839 -1.024 85.183 0.773 77.242 C5.778 55.255 15.062 33.461 28 15 C28.639 14.087 29.279 13.175 29.938 12.234 C34.62 5.921 39.928 -0.517 48 -2 C54.058 -2 57.045 -0.751 61.555 3.234 C65.511 8.067 65.486 13.351 65.371 19.344 C62.454 48.085 35.794 80.732 14.18 98.496 C12.333 100.851 12.64 102.941 12.688 105.875 C12.691 106.904 12.695 107.932 12.699 108.992 C13.008 112.077 13.57 114.255 15 117 C18.709 119.473 20.282 119.265 24.547 118.652 C40.555 114.396 52.902 95.538 61.75 82.562 C68.185 73.29 76.163 66.704 87.25 63.625 C96.6 62.067 96.6 62.067 101 65 C101 65.66 101 66.32 101 67 C101.443 67.124 101.443 67.124 103.688 67.75 C109.822 70.065 112.465 73.254 115.203 79 C118.471 87.203 117.017 96.212 113.812 104.25 C108.179 116.484 99.676 127.874 86.688 132.75 C79.099 135.051 73.104 134.69 65.996 131.117 C59.421 127.437 56.585 122.455 53 116 C52.441 116.557 51.881 117.114 51.305 117.688 C46.4 122.355 41.555 126.148 35.688 129.5 C35.101 129.838 34.515 130.175 33.912 130.523 C26.994 134.342 20.155 135.031 12.5 133 C7.193 131.062 3.993 127.721 1 123 C-0.282 120.053 -1.241 117.121 -2 114 C-2.427 114.401 -2.853 114.802 -3.293 115.215 C-13.513 124.508 -25.447 134.529 -39.891 134.203 C-45.669 133.647 -49.719 131.694 -53.75 127.5 C-57.532 122.861 -59.318 117.684 -61 112 C-61.378 112.412 -61.755 112.825 -62.145 113.25 C-71.179 122.729 -83.236 132.349 -96.75 133.25 C-102.08 133.141 -106.69 132.024 -110.766 128.453 C-116.057 122.648 -117.481 117.065 -117.312 109.305 C-116.372 99.357 -113.448 89.678 -110.062 80.312 C-109.834 79.666 -109.606 79.019 -109.371 78.353 C-107.601 73.709 -105.42 70.527 -102 67 C-98.558 66.368 -96.819 66.602 -93.688 68.125 C-91.251 70.832 -91.161 72.325 -91 76 C-91.99 79.735 -93.392 83.285 -94.812 86.875 C-101.327 103.725 -101.327 103.725 -101.188 110.875 C-101.181 111.615 -101.175 112.355 -101.168 113.117 C-101 115 -101 115 -100 117 C-91.726 117.657 -86.876 116.037 -80.466 110.73 C-76.497 107.303 -72.723 103.691 -69 100 C-68.174 99.187 -67.347 98.373 -66.496 97.535 C-60.083 90.815 -58.381 83.568 -56.011 74.76 C-49.281 49.979 -38.148 13.955 -14.91 -0.047 C-9.667 -2.663 -5.386 -1.977 0 0 Z M-9 13 C-23.35 25.332 -31.41 46.18 -37.688 63.625 C-37.944 64.329 -38.2 65.033 -38.463 65.759 C-40.127 70.62 -40.127 70.62 -39 74 C-5.944 36.248 -5.944 36.248 -5.75 16.812 C-5.832 15.884 -5.915 14.956 -6 14 C-6.99 13.67 -7.98 13.34 -9 13 Z M49 13 C33.78 24.854 25.607 47.066 19.25 64.75 C18.998 65.446 18.745 66.143 18.486 66.861 C16.871 71.614 16.871 71.614 18 75 C30.273 61.342 51.8 37.208 51.125 17.625 C51.084 16.429 51.043 15.233 51 14 C50.34 13.67 49.68 13.34 49 13 Z M76 89 C71.083 95.609 67.49 101.59 67.668 110.035 C68.281 113.661 70.442 116.442 73 119 C80.104 119.612 84.236 117.964 89.781 113.598 C96.211 107.831 100.718 99.683 102.062 91.125 C102.275 87.083 101.307 84.378 99 81 C90.263 75.175 81.812 82.27 76 89 Z " fill="#000000" transform="translate(338,7)"/>
<path d="M0 0 C2.438 1.5 2.438 1.5 4 4 C4.62 7.131 4.636 9.87 4 13 C1.455 16.702 -0.189 17.768 -4.5 19 C-8.443 19 -9.988 18.495 -13 16 C-15.069 13.366 -14.999 11.962 -14.938 8.562 C-13.829 4.352 -12.314 2.748 -9 0 C-5.815 -1.593 -3.398 -0.762 0 0 Z " fill="#000000" transform="translate(116,42)"/>
<path d="M0 0 C2.932 2.083 3.823 3.458 4.938 6.875 C5.016 10.809 4.175 12.738 2 16 C-0.323 18.058 -1.868 18.967 -4.996 19.059 C-7.901 18.808 -10.401 18.348 -12.938 16.875 C-14.631 13.886 -14.884 11.418 -15 8 C-13.765 4.432 -12.607 2.522 -9.75 0.062 C-6.04 -1.371 -3.813 -1.04 0 0 Z " fill="#000000" transform="translate(255,42)"/>
<path d="M0 0 C3.614 2.711 6.457 5.79 8.5 9.875 C8.908 14.743 9.07 19.322 7.375 23.938 C4.866 26.53 3.06 27.305 -0.5 27.875 C-2.89 26.76 -4.64 25.735 -6.5 23.875 C-6.572 22.189 -6.584 20.5 -6.562 18.812 C-6.553 17.893 -6.544 16.974 -6.535 16.027 C-6.524 15.317 -6.512 14.607 -6.5 13.875 C-16.022 13.065 -24.236 18.025 -31.5 23.875 C-34.5 27.875 -34.5 27.875 -34.5 30.875 C-29.979 32.4 -25.454 33.899 -20.895 35.305 C-19.367 35.786 -17.84 36.268 -16.312 36.75 C-15.929 36.865 -15.929 36.865 -13.986 37.449 C-8.113 39.331 -3.335 41.706 -0.125 47.25 C0.963 51.82 0.984 55.48 -0.562 59.938 C-4.748 66.284 -10.167 69.97 -17.5 71.875 C-29.111 74.172 -40.517 73.811 -50.938 67.938 C-54.536 65.041 -56.303 63.488 -56.875 58.812 C-56.5 55.875 -56.5 55.875 -55.375 54 C-52.533 52.295 -50.775 52.434 -47.5 52.875 C-45.051 54.052 -42.825 55.454 -40.5 56.875 C-32.502 59.524 -23.978 58.326 -16.5 54.875 C-16.5 54.215 -16.5 53.555 -16.5 52.875 C-17.119 52.664 -17.739 52.453 -18.377 52.236 C-21.235 51.254 -24.086 50.252 -26.938 49.25 C-27.911 48.919 -28.885 48.587 -29.889 48.246 C-37.34 45.605 -44.895 42.586 -49.562 35.938 C-51.023 31.166 -51.249 27.578 -49.219 22.961 C-42.926 11.662 -31.349 2.821 -18.887 -0.727 C-12.529 -1.788 -6.162 -1.981 0 0 Z " fill="#000000" transform="translate(65.5,70.125)"/>
<path d="M0 0 C0.298 0.18 0.298 0.18 1.809 1.09 C2.819 1.667 3.83 2.245 4.871 2.84 C5.51 3.252 6.15 3.665 6.809 4.09 C6.932 3.78 6.932 3.78 7.559 2.215 C9.082 -0.376 9.943 -1.035 12.809 -1.91 C15.894 -1.721 18.067 -1.341 20.746 0.215 C22.659 3.591 21.269 7.416 20.277 11.023 C19.624 13.103 18.934 15.165 18.227 17.227 C18.099 17.607 18.099 17.607 17.452 19.532 C16.639 21.949 15.818 24.363 14.996 26.777 C14.456 28.378 13.916 29.979 13.377 31.58 C12.337 34.667 11.294 37.753 10.248 40.837 C8.414 46.248 6.608 51.668 4.809 57.09 C5.558 56.755 6.306 56.42 7.078 56.074 C10.673 54.778 13.121 55.255 16.809 56.09 C18.809 58.09 18.809 58.09 19.121 61.527 C18.809 65.09 18.809 65.09 17.754 66.727 C15.396 68.379 13.256 68.536 10.465 69.012 C6.261 69.922 3.039 71.184 -0.191 74.09 C-5.046 81.847 -7.745 90.758 -10.766 99.342 C-14.04 108.249 -18.506 116.943 -24.129 124.59 C-24.55 125.17 -24.971 125.751 -25.405 126.349 C-29.999 132.474 -34.929 136.625 -42.191 139.09 C-49.278 140.001 -55.353 139.376 -61.191 135.09 C-65.302 131.451 -67.275 127.494 -68.191 122.09 C-68.576 109.953 -61.005 100.615 -53.191 92.09 C-42.622 81.073 -28.943 71.727 -15.191 65.09 C-14.531 65.09 -13.871 65.09 -13.191 65.09 C-12.923 63.811 -12.655 62.532 -12.379 61.215 C-11.246 56.089 -9.759 51.097 -8.191 46.09 C-8.797 46.67 -9.403 47.25 -10.027 47.848 C-18.608 55.847 -28.806 64.223 -41.191 64.09 C-46.011 63.269 -49.884 61.912 -53.129 58.152 C-57.191 52.12 -57.191 52.12 -57.191 47.09 C-57.786 47.586 -58.38 48.082 -58.992 48.594 C-80.13 65.918 -80.13 65.918 -93.734 65.438 C-99.176 64.668 -103.398 62.279 -107.066 58.215 C-112.341 50.458 -112.146 42.331 -110.504 33.316 C-108.008 22.221 -104.661 9.54 -98.191 0.09 C-95.351 -1.331 -93.337 -1.225 -90.191 -0.91 C-87.816 0.652 -87.816 0.652 -86.191 3.09 C-85.544 9.372 -87.386 14.26 -89.566 20.027 C-95.514 36.069 -95.514 36.069 -95.379 42.965 C-95.372 43.705 -95.366 44.445 -95.359 45.207 C-95.191 47.09 -95.191 47.09 -94.191 49.09 C-86.103 49.873 -81.613 47.974 -75.191 43.09 C-71.043 39.564 -67.099 35.879 -63.191 32.09 C-62.435 31.362 -61.678 30.633 -60.898 29.883 C-55.654 24.74 -50.82 19.269 -46.141 13.609 C-34.73 0.213 -17.222 -9.148 0 0 Z M-33.852 21.32 C-38.564 26.898 -42.879 33.997 -43.441 41.367 C-43.142 44.629 -42.673 45.939 -40.191 48.09 C-36.182 49.068 -33.35 47.931 -29.816 46.09 C-19.324 39.425 -8.804 28.642 -2.191 18.09 C-2.191 16.09 -2.191 16.09 -4.129 14.027 C-14.839 7.252 -25.628 13.486 -33.852 21.32 Z M-22.191 85.09 C-48.736 103.611 -48.736 103.611 -53.191 118.09 C-52.96 121.559 -52.662 122.62 -50.191 125.09 C-44.947 125.215 -41.92 122.846 -38.266 119.414 C-32.024 112.42 -27.938 103.952 -24.129 95.465 C-23.818 94.778 -23.506 94.091 -23.185 93.383 C-21.068 88.459 -21.068 88.459 -22.191 85.09 Z " fill="#000000" transform="translate(193.19140625,74.91015625)"/>
</svg>
